# xmcd CD database file
# Copyright (C) 1993-1997  Ti Kan
#
# Track frame offsets:
#	150
#	21077
#	38657
#	57142
#	71587
#	84587
#	109447
#	124755
#	146875
#	166700
#	179680
#
# Disc length: 2760 seconds
#
# Revision: 1
# Processed by: cddbd v1.4b41PL1 Copyright (c) Steve Scherf et al.
# Submitted via: xmcd 2.1 PL2
#
DISCID=980ac60b
DTITLE=Monti Amundson and The Blubinos - Man On The Floor
DYEAR=1900
DGENRE=
TTITLE0=Man On The Floor
TTITLE1=Would I Lie
TTITLE2=All I Wanna Do
TTITLE3=Sweet Talk
TTITLE4=Easy Way Out
TTITLE5=Four In The Morning
TTITLE6=Better To Be Lonely
TTITLE7=Cream In My Heart
TTITLE8=Hat Back Blues
TTITLE9=Your Turn To Be The Fool
TTITLE10=Killing Time
EXTD=
EXTT0=
EXTT1=
EXTT2=
EXTT3=
EXTT4=
EXTT5=
EXTT6=
EXTT7=
EXTT8=
EXTT9=
EXTT10=
PLAYORDER=
